<svg width="355.00000000000006" height="165.47341196287778" viewBox="0 0 355.00000000000006 165.47341196287778" class="css-1j8o68f"><defs id="SvgjsDefs3192"></defs><g id="SvgjsG3193" featurekey="nRdZyp-0" transform="matrix(1.7485788419525554,0,0,1.7485788419525554,93.25710579023722,-48.96020757467155)" fill="#000000"><polygon xmlns="http://www.w3.org/2000/svg" points="73.5,56 92.4,57.2 95,48 92.2,42.7 92.2,47.5 90.4,46.8 89.6,42.7 88.6,45.7 84.3,43.7 79.7,37.3 82,32.7   77.5,33.6 77.7,31.7 81.3,31.1 78.4,28 72.8,31.7 68.8,28 35.1,29.8 20.8,37.1 10.9,46.7 5,62.7 7,65 6.7,61.9 13.4,54 16.8,66.9   20.2,71.4 24.4,71.4 21.3,68.6 26.1,59.4 24.8,63.2 29.2,69.9 33.6,69.8 30.5,66.5 33.4,60.4 45,62 54.7,62.4 55,72 60.5,71.8   58.7,69.3 62,64.4 62.2,70 68,69.7 65.9,67.2 "></polygon></g><g id="SvgjsG3194" featurekey="Q4qmbg-0" transform="matrix(4.323801814942655,0,0,4.323801814942655,3.0975290157646773,78.30557009514301)" fill="#000000"><path d="M0.44 15.08 c0 -2.92 1.92 -5.1 4.82 -5.1 c0.64 0 1.9 0.34 2.24 0.82 l0 -5.32 l2.98 0 l0 14.52 l-2.98 0 l0 -0.66 c-0.36 0.46 -1.38 0.82 -2.04 0.82 c-2.9 0 -5.02 -2.16 -5.02 -5.08 z M3.42 15.08 c0 1.56 1 2.84 2.24 2.84 c1.36 0 2.24 -1.52 2.24 -2.84 s-0.86 -2.86 -2.24 -2.86 c-1.24 0 -2.24 1.28 -2.24 2.86 z M19.423895833333333 10.12 l0 2.18 l-4.06 5.26 l4.06 0 l0 2.44 l-7.52 0 l0 -2.28 l4.04 -5.16 l-4.04 0 l0 -2.44 l7.52 0 z M24.367791666666662 10.12 l0 9.88 l-2.96 0 l0 -9.88 l2.96 0 z M24.447791666666664 7.279999999999999 c0 0.84 -0.68 1.5 -1.58 1.5 c-0.86 0 -1.56 -0.66 -1.56 -1.5 c0 -0.82 0.7 -1.46 1.56 -1.46 c0.9 0 1.58 0.64 1.58 1.46 z M32.6316875 20 l-3.2 -4.06 c-0.08 0.08 -0.22 0.18 -0.34 0.28 l0 3.78 l-2.98 0 l0 -14.52 l2.98 0 l0 7.12 l2.84 -2.48 l4.42 0 l-4.78 4 c1.46 1.8 3.38 4.14 4.78 5.88 l-3.72 0 z M42.49558333333333 9.98 c2.9 0 4.82 2.18 4.82 5.1 s-2.12 5.08 -5.02 5.08 c-0.64 0 -1.72 -0.36 -2.04 -0.82 l0 0.66 l-2.96 0 l0 -14.52 l2.96 0 l0 5.34 c0.34 -0.5 1.62 -0.84 2.24 -0.84 z M42.09558333333333 17.92 c1.24 0 2.26 -1.28 2.26 -2.84 c0 -1.58 -1.02 -2.86 -2.26 -2.86 c-1.36 0 -2.24 1.54 -2.24 2.86 s0.9 2.84 2.24 2.84 z M53.49947916666666 12.42 c-1.22 0 -2.24 1.08 -2.24 2.66 c0 1.56 1.02 2.64 2.24 2.64 c1.24 0 2.26 -1.08 2.26 -2.64 c0 -1.58 -1.02 -2.66 -2.26 -2.66 z M53.49947916666666 9.98 c2.9 0 5.22 2.18 5.22 5.1 s-2.32 5.08 -5.22 5.08 c-2.88 0 -5.2 -2.16 -5.2 -5.08 s2.32 -5.1 5.2 -5.1 z M64.64337499999999 12.42 c-1.22 0 -2.24 1.08 -2.24 2.66 c0 1.56 1.02 2.64 2.24 2.64 c1.24 0 2.26 -1.08 2.26 -2.64 c0 -1.58 -1.02 -2.66 -2.26 -2.66 z M64.64337499999999 9.98 c2.9 0 5.22 2.18 5.22 5.1 s-2.32 5.08 -5.22 5.08 c-2.88 0 -5.2 -2.16 -5.2 -5.08 s2.32 -5.1 5.2 -5.1 z M77.66727083333333 20 l-3.2 -4.06 c-0.08 0.08 -0.22 0.18 -0.34 0.28 l0 3.78 l-2.98 0 l0 -14.52 l2.98 0 l0 7.12 l2.84 -2.48 l4.42 0 l-4.78 4 c1.46 1.8 3.38 4.14 4.78 5.88 l-3.72 0 z"></path></g></svg>