<svg width="459" height="53" viewBox="0 0 459 53" fill="none" xmlns="http://www.w3.org/2000/svg">
<path d="M159.508 0H171.058V18.4212V51.2748H159.508V47.5035C158.997 48.8089 155.561 52 149.713 52C141.014 52 131 45.8354 131 32.3459C131 19.364 141.014 12.9093 149.713 12.9093C155.561 12.9093 158.997 16.2455 159.508 17.0432V0ZM151.394 41.9191C156.146 41.9191 160.02 38.6555 160.02 32.3459C160.02 26.2538 156.146 22.9902 151.394 22.9902C146.424 22.9902 142.184 26.3264 142.184 32.3459C142.184 38.583 146.424 41.9191 151.394 41.9191ZM213.308 13.5621L195.034 41.2664H212.066V51.2748H176.613L194.888 23.5704H178.294V13.5621H213.308ZM230.413 0V9.64575H218.864V0H230.413ZM230.413 13.5621V51.2748H218.864V13.5621H230.413ZM264.184 51.2748L251.831 36.6248L249.419 39.1632V51.2748H237.869V37.5676V0H249.419V25.166L260.164 13.5621H273.98L258.921 29.2999L277.342 51.2748H264.184ZM303.877 12.9093C312.575 12.9093 322.59 19.364 322.59 32.3459C322.59 45.8354 312.575 52 303.877 52C298.029 52 294.593 48.8089 294.082 47.5035V51.2748H282.532V13.5621V0H294.082V17.0432C294.593 16.2455 298.029 12.9093 303.877 12.9093ZM302.195 41.9191C307.166 41.9191 311.406 38.583 311.406 32.3459C311.406 26.3264 307.166 22.9902 302.195 22.9902C297.444 22.9902 293.57 26.2538 293.57 32.3459C293.57 38.6555 297.444 41.9191 302.195 41.9191ZM347.735 12.9093C356.361 12.9093 367.764 19.364 367.764 32.5635C367.764 45.8354 356.361 52 347.735 52C339.11 52 327.707 45.8354 327.707 32.5635C327.707 19.364 339.11 12.9093 347.735 12.9093ZM347.735 22.9902C343.35 22.9902 338.891 26.3264 338.891 32.5635C338.891 38.583 343.35 41.9191 347.735 41.9191C352.121 41.9191 356.653 38.583 356.653 32.5635C356.653 26.3264 352.121 22.9902 347.735 22.9902ZM392.91 12.9093C401.535 12.9093 412.939 19.364 412.939 32.5635C412.939 45.8354 401.535 52 392.91 52C384.284 52 372.881 45.8354 372.881 32.5635C372.881 19.364 384.284 12.9093 392.91 12.9093ZM392.91 22.9902C388.524 22.9902 384.065 26.3264 384.065 32.5635C384.065 38.583 388.524 41.9191 392.91 41.9191C397.296 41.9191 401.828 38.583 401.828 32.5635C401.828 26.3264 397.296 22.9902 392.91 22.9902ZM445.54 51.2748L433.187 36.6248L430.775 39.1632V51.2748H419.225V37.5676V0H430.775V25.166L441.52 13.5621H455.336L440.277 29.2999L458.698 51.2748H445.54Z" fill="white"/>
<path d="M81.4389 33.2889L103.909 34.7155L107 23.7778L103.671 17.4767V23.1833L101.531 22.3511L100.58 17.4767L99.3911 21.0433L94.2789 18.6656L88.81 11.0567L91.5444 5.58778L86.1944 6.65777L86.4322 4.39889L90.7122 3.68556L87.2645 0L80.6067 4.39889L75.8511 0L35.7856 2.14L18.7844 10.8189L7.01444 22.2322L0 41.2544L2.37778 43.9889L2.02111 40.3033L9.98667 30.9111L14.0289 46.2478L18.0711 51.5978H23.0644L19.3789 48.2689L25.0856 37.3311L23.54 41.8489L28.7711 49.8144L34.0022 49.6955L30.3167 45.7722L33.7644 38.52L47.5556 40.4222L59.0878 40.8978L59.4444 52.3111L65.9833 52.0733L63.8433 49.1011L67.7667 43.2756L68.0044 49.9333L74.9 49.5767L72.4033 46.6044L81.4389 33.2889Z" fill="white"/>
</svg>
