<svg width="107" height="53" viewBox="0 0 107 53" fill="none" xmlns="http://www.w3.org/2000/svg">
<path d="M81.4389 33.2889L103.909 34.7155L107 23.7778L103.671 17.4767V23.1833L101.531 22.3511L100.58 17.4767L99.3911 21.0433L94.2789 18.6656L88.81 11.0567L91.5444 5.58778L86.1944 6.65777L86.4322 4.39889L90.7122 3.68556L87.2645 0L80.6067 4.39889L75.8511 0L35.7856 2.14L18.7844 10.8189L7.01444 22.2322L0 41.2544L2.37778 43.9889L2.02111 40.3033L9.98667 30.9111L14.0289 46.2478L18.0711 51.5978H23.0644L19.3789 48.2689L25.0856 37.3311L23.54 41.8489L28.7711 49.8144L34.0022 49.6955L30.3167 45.7722L33.7644 38.52L47.5556 40.4222L59.0878 40.8978L59.4444 52.3111L65.9833 52.0733L63.8433 49.1011L67.7667 43.2756L68.0044 49.9333L74.9 49.5767L72.4033 46.6044L81.4389 33.2889Z" fill="white"/>
</svg>
