<svg width="50" height="47" viewBox="0 0 50 47" fill="none" xmlns="http://www.w3.org/2000/svg">
<path d="M21.5641 13.908C21.1002 13.3642 20.4397 13.0457 19.7521 13.0343C18.369 13.0152 17.2247 14.1962 17.2013 15.6763C17.1938 16.1534 17.5488 16.5467 17.9942 16.5548C17.999 16.5549 18.0035 16.5549 18.0082 16.5549C18.4474 16.5549 18.8071 16.1776 18.8145 15.7054C18.8228 15.1768 19.2285 14.7527 19.7268 14.7619C19.9756 14.7661 20.205 14.8766 20.3729 15.0734C20.6734 15.4258 21.1838 15.4504 21.5126 15.1286C21.8415 14.8068 21.8647 14.2602 21.5641 13.908Z" fill="#26AB52"/>
<path d="M25.8559 16.7236C25.6086 16.1011 25.1273 15.6098 24.5349 15.3756C23.3438 14.9051 22.016 15.559 21.5746 16.8332C21.4196 17.2806 21.6327 17.7777 22.0504 17.9437C22.1429 17.9805 22.2376 17.9979 22.3308 17.9979C22.6585 17.9979 22.9666 17.7825 23.0873 17.4341C23.2198 17.0514 23.6191 16.8556 23.9762 16.9967C24.1558 17.0677 24.296 17.2109 24.371 17.3998C24.5453 17.8388 25.0193 18.0436 25.4291 17.8568C25.8392 17.67 26.0301 17.1627 25.8559 16.7236Z" fill="#26AB52"/>
<path d="M31.0554 9.07196C30.74 8.73479 30.2292 8.73549 29.9146 9.07323L29.1541 9.88925C28.8394 10.227 28.84 10.774 29.1553 11.111C29.3127 11.2793 29.5189 11.3634 29.7251 11.3634C29.9318 11.3634 30.1385 11.2788 30.2961 11.1097L31.0566 10.2937C31.3713 9.95595 31.3707 9.4089 31.0554 9.07196Z" fill="#26AB52"/>
<path d="M26.0364 20.2254H24.9612C24.5156 20.2254 24.1545 20.6122 24.1545 21.0893C24.1545 21.5664 24.5156 21.9532 24.9612 21.9532H26.0364C26.482 21.9532 26.8431 21.5664 26.8431 21.0893C26.8431 20.6122 26.482 20.2254 26.0364 20.2254Z" fill="#26AB52"/>
<path d="M34.2802 20.2254H33.2049C32.7593 20.2254 32.3982 20.6122 32.3982 21.0893C32.3982 21.5664 32.7594 21.9532 33.2049 21.9532H34.2802C34.7257 21.9532 35.0869 21.5664 35.0869 21.0893C35.0869 20.6122 34.7257 20.2254 34.2802 20.2254Z" fill="#26AB52"/>
<path d="M49.0609 37.0653L48.8747 35.989C48.756 35.3012 48.1953 34.802 47.5414 34.802C47.4593 34.802 47.3765 34.8101 47.2951 34.8261L43.5045 35.5719L45.2211 34.3429C45.671 34.0208 45.8984 33.4448 45.8003 32.8733C45.773 32.7168 45.7219 32.5666 45.648 32.426L45.1285 31.4408C44.9505 31.1024 44.6469 30.8509 44.2965 30.7512C44.1249 30.7022 43.9455 30.6913 43.7705 30.7157C43.9616 29.5858 44.0602 28.4319 44.0602 27.2572C44.0602 26.7359 43.7675 26.2874 43.3495 26.0882C43.8957 24.6968 43.933 23.1038 43.393 21.6449C43.3493 21.5263 43.2843 21.4204 43.2001 21.3301C43.1166 21.2407 43.0188 21.1716 42.908 21.1239C42.2609 20.8479 41.5809 20.708 40.8867 20.708C40.798 20.708 40.7096 20.7105 40.6215 20.715C40.5224 18.5777 38.8707 16.8714 36.8543 16.8714C36.5888 16.8714 36.3299 16.9017 36.0798 16.958C36.2535 15.8451 36.1512 14.6808 35.7465 13.5877C35.703 13.4675 35.6377 13.3597 35.549 13.2631C35.4635 13.1717 35.3633 13.1011 35.2522 13.0538C34.5552 12.7565 33.8226 12.6058 33.0748 12.6058C31.9483 12.6058 30.8707 12.945 29.9404 13.5756C29.6005 12.5212 29.04 11.5313 28.2569 10.6907C28.0275 10.4446 27.7224 10.309 27.3978 10.309C27.0732 10.309 26.7681 10.4446 26.5384 10.6909L23.0765 14.407C22.4358 13.795 21.5927 13.4292 20.6777 13.4292C20.47 13.4292 20.2604 13.4487 20.0545 13.487C19.3087 13.6261 18.6224 14.0171 18.0962 14.5896C17.4215 14.241 16.6486 14.122 15.9058 14.2605C15.7424 14.2909 15.5839 14.3338 15.43 14.3861V11.5225C15.43 9.55049 13.9501 7.9433 12.1194 7.9094V6.28536C12.6798 6.18152 13.1077 5.65845 13.1077 5.02909V1.34943C13.1077 0.645741 12.5731 0.0731506 11.916 0.0731506H6.10126C5.4441 0.0731506 4.90954 0.645741 4.90954 1.34943V5.02909C4.90954 5.65845 5.33741 6.18152 5.89781 6.28536V7.9092C4.06714 7.94299 2.58731 9.55018 2.58731 11.5223V33.8721C1.15973 35.2528 0.270996 37.1794 0.270996 39.3098C0.270996 43.5007 3.70552 46.9103 7.92725 46.9103L36.5463 46.9014C37.5231 46.9009 38.4418 46.4412 39.0666 45.6401C39.6753 44.8602 39.9339 43.8473 39.7849 42.8483L45.501 43.9485C45.5802 43.9637 45.6612 43.9714 45.7416 43.9714C46.0266 43.9714 46.2998 43.8777 46.5311 43.7006C46.8284 43.4732 47.0297 43.121 47.0834 42.7348L47.2382 41.6222C47.2605 41.4628 47.258 41.3023 47.2308 41.1449C47.1325 40.576 46.7279 40.1246 46.2002 39.9952L44.1855 39.5002L47.9724 38.7551C48.3295 38.6849 48.6394 38.4702 48.8449 38.1505C49.0501 37.8316 49.1267 37.4463 49.0609 37.0653ZM40.8867 22.2394C41.3172 22.2394 41.7404 22.3124 42.1473 22.4562C42.5109 23.642 42.3747 24.9211 41.8054 25.9776H39.8792L40.4938 25.3178C40.7728 25.0185 40.7722 24.5336 40.4926 24.2348C40.213 23.9361 39.7602 23.9366 39.4814 24.2361L39.1562 24.5852C39.0038 24.0476 38.7376 23.5663 38.3877 23.1714C39.0974 22.5679 39.9686 22.2394 40.8867 22.2394ZM36.8543 18.4028C38.1457 18.4028 39.1962 19.5312 39.1962 20.9183C39.1962 20.944 39.195 20.9694 39.1944 20.9949C38.4406 21.2574 37.7459 21.696 37.1534 22.2915C37.0591 22.2532 36.9635 22.2177 36.8653 22.1886C36.6561 20.9785 35.8947 20.0085 34.8888 19.5555C35.3062 18.8628 36.0306 18.4028 36.8543 18.4028ZM33.0747 14.1371C33.5603 14.1371 34.0376 14.2213 34.4975 14.3877C34.8671 15.5647 34.7916 16.8291 34.3206 17.9242C33.9335 18.3019 33.6193 18.7644 33.4046 19.2843C33.277 19.2923 33.1493 19.3074 33.0232 19.3309C32.4629 19.4353 31.9404 19.6957 31.5032 20.0733C31.3541 19.7812 31.1715 19.5118 30.9624 19.2692L32.6021 17.5092C32.881 17.2098 32.8805 16.7249 32.6008 16.4263C32.3213 16.1275 31.8686 16.128 31.5896 16.4275L29.7974 18.3512C29.4564 18.1785 29.0879 18.0585 28.7005 18.0023C28.8678 17.0885 29.2819 16.2275 29.9223 15.5399C30.765 14.6353 31.8846 14.1371 33.0747 14.1371ZM27.5956 25.9776H26.9758C26.8715 25.6932 26.6134 25.4915 26.3107 25.4915C26.008 25.4915 25.7499 25.6933 25.6455 25.9776H24.9164C25.0857 25.6824 25.0515 25.2911 24.8125 25.0356C24.5329 24.7369 24.0802 24.7374 23.8012 25.0368L23.1273 25.7601C23.0667 25.825 23.0202 25.899 22.986 25.9776H21.5307C20.9856 25.0819 20.653 24.0246 20.6136 22.8872H31.9574C31.918 24.0246 31.5854 25.0819 31.0404 25.9776H29.5259C29.4918 25.899 29.4451 25.8249 29.3846 25.7599L28.7108 25.0367C28.4317 24.7374 27.9792 24.7366 27.6996 25.0354C27.4604 25.2909 27.4262 25.6822 27.5956 25.9776ZM25.9327 21.3557C26.2022 20.2859 27.1133 19.4966 28.1931 19.4966C29.273 19.4966 30.1841 20.286 30.4537 21.3557H25.9327ZM27.3949 11.9397C28.075 12.7269 28.5247 13.6615 28.7452 14.644C28.3802 15.0688 28.0769 15.5383 27.8377 16.0379C27.7291 15.9666 27.6018 15.9248 27.4652 15.9248H26.5124C26.1175 15.9248 25.7974 16.2677 25.7974 16.6906C25.7974 17.1135 26.1175 17.4564 26.5124 17.4564H27.3482C27.3012 17.6678 27.2647 17.8818 27.2382 18.0975C26.9543 18.1773 26.6832 18.2911 26.4294 18.4358C25.9528 17.555 25.1636 16.8986 24.2285 16.6353C24.2282 16.6331 24.2278 16.631 24.2275 16.6288C24.1714 16.2823 24.0736 15.9535 23.9402 15.6479L27.3949 11.9397ZM14.4692 18.8496C14.4273 18.724 14.3955 18.5951 14.3746 18.4659C14.1696 17.1997 14.9666 15.99 16.151 15.7691C16.2758 15.7459 16.4027 15.734 16.528 15.734C16.9991 15.734 17.4493 15.8949 17.8298 16.1993C17.9872 16.3253 18.1862 16.3762 18.3799 16.3403C18.5737 16.3043 18.745 16.1845 18.8537 16.009C19.1894 15.4667 19.7029 15.1069 20.2998 14.9956C20.4249 14.9722 20.5521 14.9605 20.6777 14.9605C21.7371 14.9605 22.6374 15.7722 22.8184 16.8907C22.8392 17.0189 22.8498 17.1524 22.85 17.2877C22.8507 17.6841 23.1338 18.0145 23.5025 18.0492C24.3019 18.1244 24.9824 18.6632 25.2979 19.4223C24.8756 19.9651 24.5828 20.628 24.4716 21.3557H20.3939C19.8868 21.3557 19.4518 21.6909 19.2704 22.1652C18.3733 21.5109 17.316 21.1583 16.208 21.1583C15.5138 21.1583 14.8338 21.2983 14.1862 21.5744C14.0764 21.6213 13.9782 21.6907 13.8945 21.7803C13.8097 21.8712 13.7445 21.9777 13.7018 22.0945C13.5373 22.5389 13.4276 22.9958 13.3683 23.4556C13.112 23.1432 12.9314 22.7547 12.8609 22.3187C12.6927 21.2797 13.2006 20.2452 14.0955 19.8029C14.4318 19.6367 14.594 19.2229 14.4692 18.8496ZM16.6008 25.7682L16.7958 25.9776H15.0785C14.693 25.0197 14.6344 23.9294 14.9474 22.9067C15.3549 22.7626 15.7779 22.6897 16.208 22.6897C17.2854 22.6897 18.2989 23.1407 19.0617 23.9595C19.1631 24.0684 19.2576 24.1826 19.3464 24.3005C19.4676 24.888 19.6537 25.4492 19.8936 25.9775H18.816L17.6131 24.6863C17.3341 24.3871 16.8813 24.3863 16.602 24.6851C16.3224 24.984 16.3218 25.4689 16.6008 25.7682ZM13.5557 25.9776H11.0066C11.1203 25.2359 11.5369 24.6035 12.1152 24.2307C12.4576 24.7219 12.9044 25.1191 13.4193 25.3881C13.4557 25.5868 13.5004 25.7837 13.5557 25.9776ZM6.3396 1.60469H11.6776V4.77384H6.3396V1.60469ZM10.6894 6.30537V7.90767H7.32796V6.30537H10.6894ZM4.01747 14.6278H8.66068C9.05567 14.6278 9.37571 14.285 9.37571 13.8621C9.37571 13.4392 9.05567 13.0963 8.66068 13.0963H4.01747V11.5223C4.01747 10.3736 4.88733 9.4392 5.95653 9.4392H12.0608C13.1301 9.4392 14 10.3736 14 11.5223V13.0963H12.6649C12.2699 13.0963 11.9498 13.4392 11.9498 13.8621C11.9498 14.285 12.2699 14.6278 12.6649 14.6278H14V15.3075C13.1807 16.1677 12.7552 17.4292 12.9654 18.7268C12.9657 18.7294 12.9662 18.732 12.9666 18.7347C11.8195 19.5776 11.2083 21.076 11.4517 22.5803C11.4659 22.6681 11.4837 22.7545 11.5032 22.8399C11.1459 23.0509 10.8251 23.3233 10.5502 23.642H4.01747V14.6278ZM4.01737 25.1735H9.71988C9.64399 25.4316 9.59041 25.7002 9.56429 25.9776H9.44378C8.78567 25.9776 8.25016 26.5515 8.25016 27.257C8.25016 28.4729 8.3557 29.6666 8.5602 30.8344C8.35475 30.8168 8.14405 30.8073 7.92973 30.8073C7.06502 30.8073 6.24112 30.9542 5.61008 31.2211C4.64479 31.6293 4.37794 32.2089 4.31969 32.61C4.21739 32.6645 4.1169 32.7221 4.01737 32.781V25.1735ZM13.0717 34.5807C13.3292 34.8013 13.4866 34.9889 13.5778 35.1242C13.5692 35.1243 13.5603 35.1244 13.5512 35.1244C13.1465 35.1244 12.4194 34.9497 11.5925 34.4595C11.2847 34.2768 11.001 34.0705 10.7722 33.8629C10.5055 33.6208 10.1143 33.621 9.84773 33.863C9.61892 34.0708 9.33539 34.277 9.02783 34.4593C8.20078 34.9497 7.47364 35.1244 7.06903 35.1244C7.05978 35.1244 7.05091 35.1243 7.04224 35.1242C7.13338 34.9889 7.29078 34.8012 7.54838 34.5805C7.77347 34.3875 7.86833 34.0685 7.78892 33.7717C7.70941 33.4748 7.47125 33.258 7.18477 33.2221C6.48699 33.1345 6.04577 32.9443 5.83917 32.8058C6.09801 32.6332 6.75241 32.3388 7.93002 32.3388C8.90532 32.3388 9.61816 32.5584 9.96004 32.7641C10.1775 32.8948 10.4426 32.8948 10.6601 32.7642C11.0022 32.5585 11.7151 32.3389 12.6904 32.3389C13.8681 32.3389 14.5224 32.6334 14.7812 32.8059C14.5746 32.9445 14.1333 33.1346 13.4354 33.2222C13.1489 33.2582 12.9106 33.4749 12.8312 33.7719C12.7515 34.0688 12.8464 34.3878 13.0717 34.5807ZM11.6413 43.9012L11.6659 44.0431C11.7509 44.5349 11.9303 44.9863 12.1808 45.3788H7.92725C4.49415 45.3788 1.70106 42.6563 1.70106 39.3098C1.70106 37.0229 3.00603 35.0282 4.92765 33.9939C5.14836 34.1703 5.4235 34.3225 5.74994 34.4452C5.62047 34.682 5.53028 34.9366 5.50902 35.2022C5.4808 35.5552 5.58167 35.8905 5.79332 36.1464C6.07294 36.4846 6.50215 36.656 7.06903 36.656C7.82448 36.656 8.8157 36.3357 9.72045 35.7993C9.92877 35.6758 10.1257 35.5454 10.3101 35.4092C10.4944 35.5453 10.6914 35.6757 10.8998 35.7994C11.8045 36.3357 12.7957 36.6559 13.5512 36.656H13.5513C14.118 36.656 14.5472 36.4846 14.8267 36.1465C15.0385 35.8906 15.1394 35.5553 15.1111 35.2022C15.0899 34.9366 14.9997 34.682 14.8702 34.4452C15.1966 34.3223 15.4719 34.1702 15.6926 33.9939C17.2165 34.8142 18.3521 36.2386 18.757 37.9338L13.6998 39.9913C12.2195 40.5937 11.3538 42.2379 11.6413 43.9012ZM37.9691 44.6582C37.6165 45.1103 37.0976 45.3696 36.5456 45.3698L35.7951 45.3701L35.3263 42.6588C35.2543 42.2429 34.8814 41.968 34.4929 42.0453C34.1047 42.1223 33.8481 42.5218 33.92 42.9376L34.3408 45.3706L31.8806 45.3717L31.5636 43.5382C31.4916 43.1223 31.1186 42.8477 30.7302 42.9247C30.342 43.0017 30.0855 43.4012 30.1574 43.817L30.4262 45.3723L24.7036 45.3746L24.2728 42.8845C24.2008 42.4687 23.828 42.194 23.4395 42.2711C23.0512 42.3481 22.7947 42.7477 22.8666 43.1636L23.2492 45.3752L14.8935 45.3787C14.8933 45.3787 14.8931 45.3787 14.8929 45.3787C13.9994 45.3787 13.2336 44.6997 13.0718 43.7639L13.0472 43.6219C12.8856 42.6871 13.3735 41.7623 14.2074 41.423L17.0177 40.2796L17.227 41.4897C17.2908 41.8584 17.5913 42.1161 17.9292 42.1161C17.9725 42.1161 18.0163 42.1118 18.0604 42.1032C18.4486 42.0261 18.705 41.6265 18.6331 41.2107L18.3763 39.7268L22.5478 38.0297C22.917 37.8795 23.1026 37.4372 22.9623 37.0418C22.8221 36.6464 22.4086 36.4477 22.04 36.5979L20.0989 37.3877C19.5543 35.3228 18.1553 33.598 16.3002 32.6099C16.2419 32.2088 15.9751 31.6292 15.0099 31.221C14.3788 30.9541 13.5549 30.8072 12.6902 30.8072C12.0951 30.8072 11.5268 30.8775 11.0251 31.0057V30.5431C11.0251 30.1202 10.7051 29.7774 10.3101 29.7774C10.1432 29.7774 9.99007 29.839 9.86832 29.9418C9.75554 29.143 9.69242 28.3317 9.68194 27.509H32.9717C33.3667 27.509 33.6867 27.1661 33.6867 26.7432C33.6867 26.3203 33.3667 25.9774 32.9717 25.9774H32.6791C33.1344 24.9731 33.3917 23.8472 33.3917 22.6572C33.3917 21.9816 32.909 21.425 32.2939 21.3618C32.5617 21.0913 32.8959 20.909 33.2685 20.8394C33.3777 20.8191 33.4884 20.8088 33.5979 20.8088C34.521 20.8088 35.3055 21.5161 35.4631 22.4903C35.4813 22.6031 35.4906 22.7195 35.4907 22.8365C35.4912 23.233 35.7743 23.5636 36.1432 23.5983C36.9977 23.6787 37.6968 24.367 37.8434 25.272C37.8822 25.5127 37.8774 25.7501 37.8384 25.9774H37.0712C36.6762 25.9774 36.3562 26.3203 36.3562 26.7432C36.3562 27.1661 36.6762 27.509 37.0712 27.509H42.6286C42.6109 28.9137 42.4419 30.2858 42.1269 31.6171L38.2518 34.067C38.0148 33.1836 37.4639 32.4343 36.7049 31.9793C35.8537 31.4691 34.842 31.3894 33.9297 31.7605L25.9489 35.0076C25.5796 35.1577 25.3941 35.6001 25.5343 35.9954C25.6746 36.3908 26.088 36.5893 26.4566 36.4393L27.508 36.0116L27.8345 37.8992C27.8982 38.2679 28.1987 38.5257 28.5367 38.5257C28.5799 38.5257 28.6238 38.5214 28.6678 38.5127C29.056 38.4357 29.3126 38.0362 29.2407 37.6204L28.8669 35.4589L34.4373 33.1925C34.9535 32.9826 35.5253 33.0276 36.0065 33.316C36.4868 33.6039 36.8195 34.1001 36.9194 34.6772L38.366 43.0409C38.4657 43.6176 38.3211 44.2071 37.9691 44.6582ZM40.5203 38.6642C40.1867 38.7298 39.9422 39.0373 39.9347 39.4005C39.9272 39.7637 40.1591 40.0825 40.4896 40.1636L45.8133 41.4713L45.6803 42.4269L39.5087 41.2392L38.544 35.6609L43.9195 32.2625L44.3673 33.1117L39.8332 36.3577C39.5513 36.5595 39.4405 36.9457 39.5681 37.2822C39.6956 37.6187 40.0264 37.8131 40.3599 37.7475L47.4821 36.3463L47.6408 37.2632L40.5203 38.6642Z" fill="#26AB52"/>
</svg>
