<svg width="42" height="46" viewBox="0 0 42 46" fill="none" xmlns="http://www.w3.org/2000/svg">
<g clip-path="url(#clip0)">
<path d="M38.6968 18.3366H37.8939V14.331C37.8939 12.3675 36.4529 10.7705 34.6826 10.7705C34.0635 10.7705 33.4846 10.9656 32.9941 11.3036C32.6658 9.72463 31.3869 8.54521 29.8656 8.54521H29.8646C28.0946 8.54521 26.6533 10.1422 26.6533 12.1057V18.3366H14.452V12.1057C14.452 10.1422 13.0107 8.54521 11.2397 8.54521C9.71841 8.54521 8.43952 9.72463 8.11117 11.3036C7.62069 10.9656 7.04176 10.7705 6.4227 10.7705C4.65238 10.7705 3.21135 12.3675 3.21135 14.331V18.3366H2.40851C1.08069 18.3366 0 19.5348 0 21.007V24.5675C0 26.0397 1.08069 27.2379 2.40851 27.2379H3.21135V31.2434C3.21135 33.2069 4.65238 34.8039 6.4227 34.8039C7.04176 34.8039 7.62069 34.6089 8.11117 34.2709C8.43952 35.8498 9.71841 37.0293 11.2397 37.0293H11.2407C13.0107 37.0293 14.452 35.4322 14.452 33.4687V27.2379H26.6533V33.4687C26.6533 35.4322 28.0946 37.0293 29.8656 37.0293C31.3869 37.0293 32.6658 35.8498 32.9941 34.2709C33.4846 34.6089 34.0635 34.8039 34.6826 34.8039C36.4529 34.8039 37.8939 33.2069 37.8939 31.2434V27.2379H38.6968C40.0246 27.2379 41.1053 26.0397 41.1053 24.5675V21.007C41.1053 19.5348 40.0246 18.3366 38.6968 18.3366ZM3.21135 25.4576H2.40851C1.96601 25.4576 1.60568 25.0581 1.60568 24.5675V21.007C1.60568 20.5164 1.96601 20.1169 2.40851 20.1169H3.21135V25.4576ZM8.02838 31.2434C8.02838 31.7347 7.84868 32.1798 7.55796 32.5021C7.26725 32.8244 6.86583 33.0237 6.4227 33.0237C5.53707 33.0237 4.81703 32.2254 4.81703 31.2434V14.331C4.81703 13.3491 5.53707 12.5508 6.4227 12.5508C7.30833 12.5508 8.02838 13.3491 8.02838 14.331V31.2434ZM12.8463 33.4687C12.8463 34.4507 12.1254 35.249 11.2407 35.249H11.2397C10.355 35.249 9.63405 34.4507 9.63405 33.4687V12.1057C9.63405 11.1238 10.355 10.3255 11.2407 10.3255C12.1254 10.3255 12.8463 11.1238 12.8463 12.1057V33.4687ZM26.6486 21.8971H21.0343C20.5912 21.8971 20.2315 22.2959 20.2315 22.7872C20.2315 23.2785 20.5912 23.6774 21.0343 23.6774H26.6486V25.4576H14.4479V20.1169H26.6486V21.8971ZM31.4712 33.4687C31.4712 34.4507 30.7503 35.249 29.8646 35.249C28.9799 35.249 28.2589 34.4507 28.2589 33.4687V22.8328C28.2583 22.8523 28.2568 22.8717 28.2542 22.8905V22.684C28.2568 22.7027 28.2583 22.7222 28.2589 22.7417V12.1057C28.2589 11.1238 28.9799 10.3255 29.8646 10.3255H29.8656C30.7503 10.3255 31.4712 11.1238 31.4712 12.1057V33.4687ZM36.2883 31.2434C36.2883 32.2254 35.5682 33.0237 34.6826 33.0237C33.797 33.0237 33.0769 32.2254 33.0769 31.2434V14.331C33.0769 13.3491 33.797 12.5508 34.6826 12.5508C35.5682 12.5508 36.2883 13.3491 36.2883 14.331V31.2434ZM39.4996 24.5675C39.4996 25.0581 39.1393 25.4576 38.6968 25.4576H37.8939V20.1169H38.6968C39.1393 20.1169 39.4996 20.5164 39.4996 21.007V24.5675Z" fill="#55C57A"/>
<path d="M17.8246 23.6774C17.3812 23.6774 17.0215 23.2789 17.0215 22.7872C17.0215 22.2956 17.3806 21.8971 17.824 21.8971H17.8246C18.2681 21.8971 18.6275 22.2956 18.6275 22.7872C18.6275 23.2789 18.2681 23.6774 17.8246 23.6774Z" fill="#55C57A"/>
</g>
<defs>
<clipPath id="clip0">
<rect width="41.1053" height="45.5745" fill="white"/>
</clipPath>
</defs>
</svg>
