<svg width="107" height="53" viewBox="0 0 107 53" fill="none" xmlns="http://www.w3.org/2000/svg">
<path d="M81.5023 32.2909L80.9322 32.2547L80.6114 32.7274L71.5758 46.0429L71.1512 46.6686L71.6376 47.2476L72.8423 48.6818L68.9675 48.8822L68.7661 43.2399L68.6563 40.1646L66.9373 42.717L63.0139 48.5425L62.6248 49.1202L63.0318 49.6854L64.0804 51.1418L60.4125 51.2752L60.0873 40.8666L60.0583 39.937L59.129 39.8987L47.6447 39.425L33.901 37.5294L33.1757 37.4293L32.8613 38.0906L29.4136 45.3428L29.1205 45.9593L29.5879 46.4569L31.7389 48.7467L29.3026 48.8021L24.6447 41.7093L26.0318 37.6548L24.199 36.8685L18.4923 47.8063L18.1344 48.4923L18.7086 49.011L20.4654 50.5978H18.5689L14.9456 45.8023L10.9536 30.6562L10.4648 28.8013L9.22402 30.2643L1.96014 38.8291L7.87395 22.7917L19.3728 11.6413L36.0511 3.12725L75.4824 1.02112L79.9277 5.13299L80.5035 5.66564L81.158 5.23323L87.1112 1.29988L88.7071 3.00595L86.2678 3.4125L85.5173 3.53757L85.4377 4.29419L85.1999 6.55307L85.0576 7.90494L86.3905 7.63835L89.7356 6.96934L87.9156 10.6095L87.6454 11.1498L87.998 11.6403L93.4669 19.2492L93.6197 19.4619L93.8572 19.5723L98.9694 21.95L99.9854 22.4226L100.326 21.3994L100.55 22.5426L100.655 23.0834L101.169 23.2831L103.309 24.1153L104.671 24.6451V23.1833V21.5102L105.929 23.891L103.166 33.6663L81.5023 32.2909Z" fill="#924C24" stroke="#924C24" stroke-width="2"/>
</svg>
