<svg width="328" height="52" viewBox="0 0 328 52" fill="none" xmlns="http://www.w3.org/2000/svg">
<path d="M28.5082 0H40.0577V18.4212V51.2748H28.5082V47.5035C27.9965 48.8089 24.5609 52 18.7131 52C10.0144 52 0 45.8354 0 32.3459C0 19.364 10.0144 12.9093 18.7131 12.9093C24.5609 12.9093 27.9965 16.2455 28.5082 17.0432V0ZM20.3943 41.9191C25.1457 41.9191 29.0199 38.6555 29.0199 32.3459C29.0199 26.2538 25.1457 22.9902 20.3943 22.9902C15.4237 22.9902 11.184 26.3264 11.184 32.3459C11.184 38.583 15.4237 41.9191 20.3943 41.9191ZM82.3083 13.5621L64.0338 41.2664H81.0656V51.2748H45.6131L63.8876 23.5704H47.2944V13.5621H82.3083ZM99.4132 0V9.64575H87.8637V0H99.4132ZM99.4132 13.5621V51.2748H87.8637V13.5621H99.4132ZM133.184 51.2748L120.831 36.6248L118.419 39.1632V51.2748H106.869V37.5676V0H118.419V25.166L129.164 13.5621H142.98L127.921 29.2999L146.342 51.2748H133.184ZM172.877 12.9093C181.575 12.9093 191.59 19.364 191.59 32.3459C191.59 45.8354 181.575 52 172.877 52C167.029 52 163.593 48.8089 163.082 47.5035V51.2748H151.532V13.5621V0H163.082V17.0432C163.593 16.2455 167.029 12.9093 172.877 12.9093ZM171.195 41.9191C176.166 41.9191 180.406 38.583 180.406 32.3459C180.406 26.3264 176.166 22.9902 171.195 22.9902C166.444 22.9902 162.57 26.2538 162.57 32.3459C162.57 38.6555 166.444 41.9191 171.195 41.9191ZM216.735 12.9093C225.361 12.9093 236.764 19.364 236.764 32.5635C236.764 45.8354 225.361 52 216.735 52C208.11 52 196.707 45.8354 196.707 32.5635C196.707 19.364 208.11 12.9093 216.735 12.9093ZM216.735 22.9902C212.35 22.9902 207.891 26.3264 207.891 32.5635C207.891 38.583 212.35 41.9191 216.735 41.9191C221.121 41.9191 225.653 38.583 225.653 32.5635C225.653 26.3264 221.121 22.9902 216.735 22.9902ZM261.91 12.9093C270.536 12.9093 281.939 19.364 281.939 32.5635C281.939 45.8354 270.536 52 261.91 52C253.284 52 241.881 45.8354 241.881 32.5635C241.881 19.364 253.284 12.9093 261.91 12.9093ZM261.91 22.9902C257.524 22.9902 253.065 26.3264 253.065 32.5635C253.065 38.583 257.524 41.9191 261.91 41.9191C266.296 41.9191 270.828 38.583 270.828 32.5635C270.828 26.3264 266.296 22.9902 261.91 22.9902ZM314.54 51.2748L302.187 36.6248L299.775 39.1632V51.2748H288.225V37.5676V0H299.775V25.166L310.52 13.5621H324.336L309.277 29.2999L327.698 51.2748H314.54Z" fill="#60C064"/>
</svg>
