<svg width="107" height="53" viewBox="0 0 107 53" fill="none" xmlns="http://www.w3.org/2000/svg">
<path d="M81.629 30.2949L79.9187 30.1863L78.9565 31.6044L70.782 43.6509L70.7648 43.1686L70.4354 33.9426L65.2784 41.5998L62.2516 46.094L62.0863 40.8041L61.9992 38.0153L59.2114 37.9003L47.823 37.4307L34.1743 35.5481L31.9982 35.248L31.055 37.2319L28.1332 43.3779L26.854 41.43L27.9241 38.3022L22.4258 35.9434L17.3516 45.669L16.7791 44.9113L12.8876 30.1465L11.4209 24.5818L7.74892 28.9115L9.59298 23.9107L20.5495 13.2861L36.582 5.10174L74.7449 3.06336L78.5696 6.6012L80.2971 8.19913L82.2605 6.9019L83.2188 6.26873L83.2109 6.34368L82.7839 10.3993L86.118 9.73246L85.3162 11.336L86.374 12.8076L91.8429 20.4165L92.3014 21.0545L93.0137 21.3858L98.1259 23.7635L98.8123 24.0827L98.9031 24.548L100.444 25.1471L102.584 25.9793L103.193 26.2164L101.681 31.568L81.629 30.2949Z" fill="white" stroke="#924C24" stroke-width="6"/>
</svg>
